<?xml version="1.0" encoding="UTF-8" standalone="no"?>
<svg width="25px" height="24px" viewBox="0 0 25 24" version="1.1" xmlns="http://www.w3.org/2000/svg" xmlns:xlink="http://www.w3.org/1999/xlink">
    <!-- Generator: Sketch 3.8.3 (29802) - http://www.bohemiancoding.com/sketch -->
    <title>feedback</title>
    <desc>Created with Sketch.</desc>
    <defs></defs>
    <g id="Page-1" stroke="none" stroke-width="1" fill="none" fill-rule="evenodd" stroke-linecap="round" stroke-linejoin="round">
        <g id="Group" transform="translate(1.000000, 6.000000)" stroke="#757884">
            <path d="M17.23,0.94092 L0,9.50328 L1.3097,13.15657 L20.5,13 L21.0402,12.62916 C20.3589,13.13022 19.445,12.71765 18.5746,11.33778 C17.1684,9.10853 16.4085,5.19879 16.8771,2.60512 C16.9799,2.03618 17.1333,1.07783 17.5,1 L17.23,0.94092 Z" id="Stroke-9"></path>
            <polyline id="Stroke-11" points="5.6386 13.03046 7.178 15.84679 11.1134 16.27719 13.6092 13.40133"></polyline>
            <path d="M20.2718,1.94526 C21.678,4.1745 22.4379,8.08425 21.9693,10.67792 C21.5006,13.2716 19.9808,13.56703 18.5746,11.33778 C17.1684,9.10853 16.4085,5.19879 16.8771,2.60512 C17.3458,0.01143 18.8657,-0.28399 20.2718,1.94526" id="Stroke-13"></path>
        </g>
    </g>
</svg>