<?xml version="1.0" encoding="UTF-8" standalone="no"?>
<svg width="374px" height="374px" viewBox="0 0 374 374" version="1.1" xmlns="http://www.w3.org/2000/svg" xmlns:xlink="http://www.w3.org/1999/xlink">
    <!-- Generator: Sketch 3.8.3 (29802) - http://www.bohemiancoding.com/sketch -->
    <title>dna-linear</title>
    <desc>Created with Sketch.</desc>
    <defs></defs>
    <g id="Page-1" stroke="none" stroke-width="1" fill="none" fill-rule="evenodd">
        <g transform="translate(186.000000, 142.000000)">
            <path d="M3.5,5.9 L3.5,82.1" id="Stroke-4" stroke="#FF0000" stroke-width="5" stroke-linecap="round" stroke-linejoin="round"></path>
            <path d="M1.5908,82.8908 C2.6452,81.8364 4.3548,81.8364 5.4092,82.8908 C6.4636,83.9452 6.4636,85.6548 5.4092,86.7092 C4.3548,87.7636 2.6452,87.7636 1.5908,86.7092 C0.5364,85.6548 0.5364,83.9452 1.5908,82.8908" id="Fill-6" fill="#FF0000"></path>
            <path d="M1.5908,82.8908 C2.6452,81.8364 4.3548,81.8364 5.4092,82.8908 C6.4636,83.9452 6.4636,85.6548 5.4092,86.7092 C4.3548,87.7636 2.6452,87.7636 1.5908,86.7092 C0.5364,85.6548 0.5364,83.9452 1.5908,82.8908" id="Stroke-8" stroke="#FF0000" stroke-width="5"></path>
            <path d="M5.4092,5.1092 C4.3548,6.1636 2.6452,6.1636 1.5908,5.1092 C0.5364,4.0548 0.5364,2.3452 1.5908,1.2908 C2.6452,0.2364 4.3548,0.2364 5.4092,1.2908 C6.4636,2.3452 6.4636,4.0548 5.4092,5.1092" id="Fill-9" fill="#FF0000"></path>
            <path d="M5.4092,5.1092 C4.3548,6.1636 2.6452,6.1636 1.5908,5.1092 C0.5364,4.0548 0.5364,2.3452 1.5908,1.2908 C2.6452,0.2364 4.3548,0.2364 5.4092,1.2908 C6.4636,2.3452 6.4636,4.0548 5.4092,5.1092" id="Stroke-10" stroke="#FF0000" stroke-width="5"></path>
        </g>
    </g>
</svg>