<?xml version="1.0" encoding="UTF-8" standalone="no"?>
<svg width="374px" height="374px" viewBox="0 0 374 374" version="1.1" xmlns="http://www.w3.org/2000/svg" xmlns:xlink="http://www.w3.org/1999/xlink">
    <!-- Generator: Sketch 3.8.3 (29802) - http://www.bohemiancoding.com/sketch -->
    <title>envelope-yes</title>
    <desc>Created with Sketch.</desc>
    <defs></defs>
    <g id="Page-1" stroke="none" stroke-width="1" fill="none" fill-rule="evenodd">
        <g transform="translate(6.000000, 5.000000)">
            <path d="M296.5512,67.4488 C359.8164,130.7137 359.8164,233.2863 296.5512,296.5512 C233.2863,359.8164 130.7137,359.8164 67.4488,296.5512 C4.1836,233.2863 4.1836,130.7137 67.4488,67.4488 C130.7137,4.18362 233.2863,4.18362 296.5512,67.4488" id="Stroke-5" stroke="#FF8000" stroke-width="5" stroke-linecap="round" stroke-linejoin="round"></path>
            <path d="M180,8 L180,20 L184,20 L184,8.2141 C184.3131,8.0093 184.7079,7.7319 185.0578,7.3821 C186.7465,5.6933 186.7465,2.9553 185.0578,1.2666 C183.369,-0.4222 180.631,-0.4222 178.9422,1.2666 C177.2535,2.9553 177.2535,5.6933 178.9422,7.3821 C179.2921,7.7319 179.6869,8.0093 180,8 L180,8 Z" id="Fill-6" fill="#FF8000"></path>
            <path d="M356,180 L344,180 L344,184 L355.7859,184 C355.9907,184.3131 356.2681,184.7079 356.6179,185.0578 C358.3067,186.7465 361.0447,186.7465 362.7334,185.0578 C364.4222,183.369 364.4222,180.631 362.7334,178.9422 C361.0447,177.2535 358.3067,177.2535 356.6179,178.9422 C356.2681,179.2921 355.9907,179.6869 356,180 L356,180 Z" id="Fill-7" fill="#FF8000"></path>
            <path d="M184,356 L184,344 L180,344 L180,355.78585 C179.6869,355.99075 179.2921,356.2681 178.9422,356.61792 C177.2535,358.30667 177.2535,361.044677 178.9422,362.733429 C180.631,364.42219 183.369,364.42219 185.0578,362.733429 C186.7465,361.044677 186.7465,358.30667 185.0578,356.61792 C184.7079,356.2681 184.3131,355.99075 184,356 L184,356 Z" id="Fill-8" fill="#FF8000"></path>
            <path d="M8,184 L20,184 L20,180 L8.21415,180 C8.00925,179.6869 7.7319,179.2921 7.38208,178.9422 C5.69333,177.2535 2.955323,177.2535 1.266571,178.9422 C-0.42219,180.631 -0.42219,183.369 1.266571,185.0578 C2.955323,186.7465 5.69333,186.7465 7.38208,185.0578 C7.7319,184.7079 8.00925,184.3131 8,184 L8,184 Z" id="Fill-9" fill="#FF8000"></path>
            <path d="M93,32 L99.3616,42.6498 L102.6384,40.7579 L96.7455,30.5511 C97.0078,30.163 97.2111,29.7254 97.3391,29.2476 C97.9573,26.9407 96.5883,24.5695 94.2814,23.9514 C91.9745,23.3332 89.60331,24.7023 88.98519,27.0091 C88.36706,29.316 89.73606,31.6872 92.04295,32.3053 C92.52081,32.4334 93.0014,32.4761 93,32 L93,32 Z" id="Fill-10" fill="#FF8000"></path>
            <path d="M332,93 L321.3502,99.3616 L323.2421,102.6384 L333.4489,96.7455 C333.837,97.0078 334.2746,97.2111 334.7524,97.3391 C337.0593,97.9573 339.4305,96.5883 340.0486,94.2814 C340.6668,91.9745 339.2977,89.6033 336.9909,88.9852 C334.684,88.3671 332.3128,89.7361 331.6947,92.0429 C331.5666,92.5208 331.5239,93.0014 332,93 L332,93 Z" id="Fill-11" fill="#FF8000"></path>
            <path d="M271,332 L264.6384,321.35017 L261.3616,323.24206 L267.2545,333.44891 C266.9922,333.83696 266.7889,334.27457 266.6609,334.75243 C266.0427,337.05931 267.4117,339.4305 269.7186,340.04862 C272.0255,340.66675 274.3967,339.29775 275.0148,336.99086 C275.6329,334.68398 274.2639,332.3128 271.9571,331.69468 C271.4792,331.56663 270.9986,331.52386 271,332 L271,332 Z" id="Fill-12" fill="#FF8000"></path>
            <path d="M32,271 L42.64983,264.6384 L40.75794,261.3616 L30.55109,267.2545 C30.16304,266.9922 29.72543,266.7889 29.24757,266.6609 C26.94069,266.0427 24.5695,267.4117 23.95138,269.7186 C23.33325,272.0255 24.70225,274.39669 27.00914,275.01481 C29.31602,275.63294 31.6872,274.26394 32.30532,271.95705 C32.43337,271.47919 32.47614,270.9986 32,271 L32,271 Z" id="Fill-13" fill="#FF8000"></path>
            <path d="M31,97 L40.75794,102.6384 L42.64983,99.3616 L32.44298,93.4686 C32.47614,93.0014 32.43337,92.5208 32.30532,92.0429 C31.6872,89.7361 29.31602,88.3671 27.00914,88.9852 C24.70225,89.6033 23.33325,91.9745 23.95138,94.2814 C24.5695,96.5883 26.94069,97.9573 29.24757,97.3391 C29.72543,97.2111 30.16304,97.0078 31,97 L31,97 Z" id="Fill-14" fill="#FF8000"></path>
            <path d="M267,31 L261.3616,40.7579 L264.6384,42.6498 L270.5314,32.443 C270.9986,32.4761 271.4792,32.4334 271.9571,32.3053 C274.2639,31.6872 275.6329,29.316 275.0148,27.0091 C274.3967,24.7023 272.0255,23.3332 269.7186,23.9514 C267.4117,24.5695 266.0427,26.9407 266.6609,29.2476 C266.7889,29.7254 266.9922,30.163 267,31 L267,31 Z" id="Fill-15" fill="#FF8000"></path>
            <path d="M333,267 L323.2421,261.3616 L321.3502,264.6384 L331.557,270.5314 C331.5239,270.9986 331.5666,271.47919 331.6947,271.95705 C332.3128,274.26394 334.684,275.63294 336.9909,275.01481 C339.2977,274.39669 340.6668,272.0255 340.0486,269.7186 C339.4305,267.4117 337.0593,266.0427 334.7524,266.6609 C334.2746,266.7889 333.837,266.9922 333,267 L333,267 Z" id="Fill-16" fill="#FF8000"></path>
            <path d="M97,333 L102.6384,323.24206 L99.3616,321.35017 L93.4686,331.55702 C93.0014,331.52386 92.52081,331.56663 92.04295,331.69468 C89.73606,332.3128 88.36706,334.68398 88.98519,336.99086 C89.60331,339.29775 91.9745,340.66675 94.2814,340.04862 C96.5883,339.4305 97.9573,337.05931 97.3391,334.75243 C97.2111,334.27457 97.0078,333.83696 97,333 L97,333 Z" id="Fill-17" fill="#FF8000"></path>
        </g>
    </g>
</svg>